<svg width="32" height="32" viewBox="0 0 32 32" fill="none" xmlns="http://www.w3.org/2000/svg">
<g clip-path="url(#clip0_317_2976)">
<path d="M21.1562 0.0078125C27.14 0.00801573 31.9912 4.85895 31.9912 10.8428V21.1738C31.991 27.1575 27.1399 32.0086 21.1562 32.0088H10.8252C4.84137 32.0088 -0.00956239 27.1576 -0.00976562 21.1738V10.8428C-0.00976562 4.85882 4.84124 0.0078125 10.8252 0.0078125H21.1562ZM12.8037 12.8213L4.18945 16.0088L12.8037 19.1953L15.9912 27.8096L19.1777 19.1953L27.792 16.0088L19.1777 12.8213L15.9912 4.20703L12.8037 12.8213Z" fill="black"/>
<path d="M15.9907 4.20703L19.1781 12.8209L27.792 16.0083L19.1781 19.1957L15.9907 27.8096L12.8033 19.1957L4.18945 16.0083L12.8033 12.8209L15.9907 4.20703Z" fill="#D2F65A"/>
</g>
<defs>
<clipPath id="clip0_317_2976">
<rect width="32" height="32" fill="white" transform="translate(-0.0078125 0.0078125)"/>
</clipPath>
</defs>
</svg>
